<?xml version="1.0" encoding="utf-8"?>
<!-- Generator: Adobe Illustrator 16.0.0, SVG Export Plug-In . SVG Version: 6.00 Build 0)  -->
<!DOCTYPE svg PUBLIC "-//W3C//DTD SVG 1.1//EN" "http://www.w3.org/Graphics/SVG/1.1/DTD/svg11.dtd">
<svg version="1.1" id="Layer_1" xmlns="http://www.w3.org/2000/svg" xmlns:xlink="http://www.w3.org/1999/xlink" x="0px" y="0px"
	 width="177px" height="104px" viewBox="0 0 177 104" enable-background="new 0 0 177 104" xml:space="preserve">
<rect y="0.016" fill="#242120" width="177" height="104"/>
<g>
	<path fill="#A09693" d="M19.327,67.754v-5.437h-7.325v5.437h-2.25V55.12h2.25v5.284h7.325V55.12h2.25v12.634H19.327z"/>
	<path fill="#A09693" d="M35.717,66.511c-1.148,0.869-2.623,1.349-4.402,1.349c-1.779,0-3.231-0.479-4.378-1.349
		c-1.639-1.241-1.617-2.645-1.617-5.074c0-2.431-0.022-3.833,1.617-5.074c1.147-0.869,2.6-1.347,4.378-1.347
		c1.78,0,3.254,0.478,4.402,1.347c1.64,1.241,1.593,2.644,1.593,5.074C37.31,63.866,37.356,65.27,35.717,66.511z M33.996,57.687
		c-0.632-0.462-1.618-0.749-2.681-0.749c-1.062,0-2.049,0.287-2.68,0.749c-0.885,0.643-1.064,1.322-1.064,3.75
		s0.179,3.108,1.064,3.751c0.631,0.46,1.618,0.749,2.68,0.749c1.063,0,2.049-0.289,2.681-0.749c0.887-0.643,1.063-1.323,1.063-3.751
		S34.882,58.329,33.996,57.687z"/>
	<path fill="#A09693" d="M46.088,57.033v10.721h-2.251V57.033h-4.729V55.12h11.708v1.913H46.088z"/>
	<path fill="#A09693" d="M53.694,67.754V55.12h10.655v1.913h-8.405v3.39h7.212v1.913h-7.212v3.504h8.405v1.914H53.694z"/>
	<path fill="#5E5958" d="M83.104,67.754V55.12h10.655v1.913h-8.404v3.39h7.209v1.913h-7.209v3.504h8.404v1.914H83.104z"/>
	<path fill="#A09693" d="M67.811,67.754V55.12h2.251v10.72h8.308v1.914H67.811z"/>
	<path fill="#5E5958" d="M101.027,67.859c-2.504,0-4.298-0.483-5.676-1.691l1.328-1.352c1.001,0.993,2.991,1.211,4.509,1.211
		c2.178,0,3.662-0.694,3.662-1.918c0-0.549-0.349-1.554-2.814-1.751l-1.967-0.211c-1.357-0.142-2.438-0.497-3.16-1.012
		c-0.821-0.586-1.22-1.385-1.22-2.414c0-2.199,2.108-3.706,5.573-3.706c1.928,0,3.586,0.439,5.083,1.372l-1.311,1.41
		c-1.029-0.746-2.779-0.988-3.732-0.96c-1.965,0.062-3.332,0.774-3.347,1.812c-0.01,0.615,0.367,0.963,0.812,1.266
		c0.422,0.282,1.114,0.404,1.887,0.492l1.896,0.213c1.545,0.178,2.413,0.461,3.113,0.94c0.914,0.602,1.361,1.509,1.361,2.589
		C107.025,66.478,104.518,67.859,101.027,67.859z"/>
	<path fill="#5E5958" d="M116.736,62.963h-4.069v4.791h-2.251V55.12h6.32c3.255,0,5.341,1.455,5.341,3.955
		C122.077,61.275,119.991,62.963,116.736,62.963z M116.875,57.033h-4.208v4.013h4.208c1.758,0,2.95-0.617,2.95-1.948
		C119.825,57.768,118.633,57.033,116.875,57.033z"/>
	<path fill="#5E5958" d="M133.548,67.754l-1.106-2.439h-6.666l-1.104,2.439h-2.694l6.111-12.634h2.039l6.112,12.634H133.548z
		 M129.168,57.976l-2.515,5.424h4.96L129.168,57.976z"/>
	<path fill="#5E5958" d="M165.058,67.754l-1.104-2.439h-6.67l-1.104,2.439h-2.69l6.111-12.634h2.038l6.11,12.634H165.058z
		 M160.68,57.976l-2.514,5.424h4.959L160.68,57.976z"/>
	<path fill="#5E5958" d="M149.224,67.754l-8.256-9.208v9.208h-2.366V55.12h2.042l8.124,9.186V55.12h2.385v12.634H149.224z
		 M146.399,53.666c-0.68,0-1.148-0.143-1.756-0.408c-0.446-0.194-0.764-0.334-1.233-0.334c-0.398,0-0.781,0.031-1.437,0.529
		l-0.734-0.949c0.692-0.621,1.296-0.861,2.046-0.861c0.68,0,1.123,0.143,1.754,0.427c0.472,0.212,0.821,0.338,1.289,0.338
		c0.377,0,0.75-0.071,1.382-0.551l0.778,1C147.592,53.518,147.124,53.666,146.399,53.666z"/>
	<g>
		<path fill="#A09693" d="M100.002,77.904l-0.411-0.902l-2.416-0.003l-0.413,0.905h-0.619l1.999-4.221h0.487l1.99,4.221H100.002z
			 M98.393,74.33l-1.021,2.229h2.027L98.393,74.33z"/>
		<path fill="#A09693" d="M74.617,77.904l-1.235-1.874h-1.305v1.874h-0.58v-4.221h2.083c0.946,0,1.61,0.445,1.61,1.175
			c0,0.614-0.481,1.019-1.183,1.131l1.289,1.915H74.617z M73.525,74.138h-1.449v1.453h1.449c0.633,0,1.084-0.212,1.084-0.728
			C74.61,74.349,74.159,74.138,73.525,74.138z"/>
		<path fill="#A09693" d="M79.664,77.904l-0.412-0.902l-2.418-0.003l-0.412,0.905h-0.618l1.999-4.221h0.487l1.991,4.221H79.664z
			 M78.054,74.33l-1.021,2.229h2.028L78.054,74.33z"/>
		<path fill="#A09693" d="M85.229,77.904v-3.207l-1.487,2.542h-0.496l-1.509-2.542v3.207h-0.58v-4.221h0.58l1.768,2.995l1.724-2.995
			h0.579v4.221H85.229z"/>
		<path fill="#A09693" d="M89.49,77.904h-2.113v-4.221h2.043c0.946,0,1.603,0.422,1.603,1.127c0,0.444-0.345,0.794-0.801,0.926
			c0.518,0.147,0.884,0.496,0.884,0.999C91.105,77.5,90.449,77.904,89.49,77.904z M89.375,74.138h-1.418v1.381h1.418
			c0.604,0,1.141-0.197,1.141-0.702C90.516,74.313,89.979,74.138,89.375,74.138z M89.436,75.986h-1.479v1.464h1.479
			c0.673,0,1.155-0.253,1.155-0.726S90.108,75.986,89.436,75.986z"/>
		<path fill="#A09693" d="M92.469,77.904v-4.221h0.578v3.756h2.779v0.465H92.469z"/>
		<path fill="#A09693" d="M102.89,77.938c-0.475,0-1.145-0.024-1.718-0.527l0.314-0.357c0.448,0.348,0.811,0.437,1.421,0.437
			c0.793,0,1.338-0.307,1.338-0.735c0-0.219-0.112-0.621-1.156-0.745l-0.504-0.062c-0.427-0.054-0.762-0.159-0.998-0.32
			c-0.274-0.189-0.407-0.45-0.407-0.79c0-0.715,0.658-1.189,1.734-1.189c0.695,0,1.094,0.164,1.544,0.414l-0.301,0.34
			c-0.21-0.124-0.694-0.307-1.268-0.307c-0.722,0-1.18,0.341-1.188,0.726c-0.004,0.21,0.122,0.374,0.29,0.488
			c0.167,0.111,0.451,0.193,0.732,0.231l0.595,0.07c0.51,0.058,0.762,0.143,0.99,0.295c0.298,0.196,0.46,0.487,0.46,0.835
			C104.769,77.482,104.02,77.938,102.89,77.938z"/>
	</g>
	<g>
		<path fill="#A09693" d="M81.453,84.294l-1.428-0.839l0.036,1.619h-0.535l0.036-1.619l-1.429,0.839l-0.262-0.438l1.464-0.78
			l-1.464-0.781l0.262-0.438l1.429,0.84l-0.036-1.619h0.535l-0.036,1.619l1.428-0.84l0.263,0.438l-1.464,0.781l1.464,0.78
			L81.453,84.294z"/>
		<path fill="#A09693" d="M87.011,84.294l-1.426-0.839l0.035,1.619h-0.535l0.036-1.619l-1.428,0.839l-0.263-0.438l1.463-0.78
			l-1.463-0.781l0.263-0.438l1.428,0.84l-0.036-1.619h0.535l-0.035,1.619l1.426-0.84l0.263,0.438l-1.464,0.781l1.464,0.78
			L87.011,84.294z"/>
		<path fill="#A09693" d="M92.573,84.294l-1.43-0.839l0.036,1.619h-0.535l0.035-1.619l-1.427,0.839l-0.265-0.438l1.466-0.78
			l-1.466-0.781l0.265-0.438l1.427,0.84l-0.035-1.619h0.535l-0.036,1.619l1.43-0.84l0.263,0.438l-1.465,0.781l1.465,0.78
			L92.573,84.294z"/>
		<path fill="#A09693" d="M98.133,84.294l-1.43-0.839l0.036,1.619h-0.535l0.036-1.619l-1.429,0.839l-0.263-0.438l1.465-0.78
			l-1.465-0.781l0.263-0.438l1.429,0.84l-0.036-1.619h0.535l-0.036,1.619l1.43-0.84l0.261,0.438l-1.464,0.781l1.464,0.78
			L98.133,84.294z"/>
	</g>
	<path fill="#5E5958" d="M102.229,35.501c0.896-2.088,1.684-4.748,1.781-6.938c0.237-5.427-2.771-7.863-4.865-7.952
		c-2.096-0.088-3.089,1.515-3.115,2.154c-0.029,0.638,0.209,1.333,1.047,1.369c0.838,0.035,1.227-0.359,1.248-0.816
		c0.021-0.456-0.103-0.873-0.455-0.887c-0.354-0.016-0.4,0.212-0.4,0.212c0.044-1.004,1.251-0.862,1.251-0.862
		c3.211,0.134,3.097,5.933,3.097,5.933c-0.073,1.652-0.456,3.224-1.02,4.681l-0.018-0.025c0,0-0.352,0.993-1.083,2.369
		c-1.12,2.021-2.507,3.732-3.717,5.017c-0.649,0.614-1.364,1.185-2.154,1.67c-6.125,3.76-11.156-0.263-11.958-2.357
		c0,0-0.399-0.916-1.736-0.719c-1.336,0.196-1.996,1.931-0.727,3.632c0,0,2.53,4.155,9.876,2.388c0,0,0.398-0.156,0.386,0.082
		c-0.007,0.165-0.449,0.311-0.449,0.311s-6.348,2.225-11.758-2.159c0,0-3.071-2.488-3.071-6.611c0,0,0.281-3.215,2.93-3.707
		c2.5-0.465,2.79,1.417,2.79,1.417s0.092,0.269-0.275,0.775c-0.084,0.135-0.118,0.19-0.152,0.415c0,0,0.005,0.327,0.298,0.593
		c0.604,0.546,0.604,0.492,0.993,0.828c0,0,0.479,0.505,0.776,0.601c0.295,0.094,0.719-0.232,0.719-0.232s0.583-0.392,1.154-0.862
		c0,0,0.617-0.401,0.708-0.871c0.092-0.474,0.247-2.973-2.127-4.083c-2.326-1.086-5.076-0.698-7.259,1.134
		c0,0-0.198,0.166-0.289,0.017c-0.051-0.082,0.153-0.314,0.153-0.314s1.815-2.595,5.822-2.595c4.008,0,5.635,3.15,5.811,4.623
		c0.151,1.284-0.945,2.626-0.945,2.626s-0.526,0.388-0.252,1.044c0.561,1.345,1.256,2.267,1.927,2.118c0,0,1.3-0.347,1.917-0.805
		c0.503-0.372,0.549-0.477,0.607-1.612c0.091-1.658-0.236-3.221-1.503-5.25c-0.71-1.131-1.998-2.117-1.998-2.117
		s-0.473-0.396-0.027-0.222c0.445,0.174,4.259,2.042,4.764,7.281c0,0-0.001,0.654,0.623,0.786c0.623,0.131,1.915,0.498,1.915,0.498
		s0.579,0.176,1.067-0.349c0.491-0.524,0.7-2.268,0.7-2.268s0-0.388-0.456-1.013c-0.493-0.678-0.821-1.133-1.764-2.059
		c-0.849-0.829-5.451-5.161-10.159-5.22c-3.638-0.047-5.067,1.035-5.823,1.384c0,0-0.244,0.15-0.327,0.003
		c-0.083-0.143,0.15-0.309,0.15-0.309s3.154-2.004,7.082-2.064c5.021-0.076,8.246,3.588,8.246,3.588s0.326,0.648,0.964,0.41
		c0.543-0.201,0.985-0.343,2.145-0.605c0,0,0.624-0.13,0.443-0.917c-0.176-0.785-0.211-1.133-0.5-1.878c0,0-0.211-0.452-0.883-0.79
		c-1.097-0.553-2.62-1.18-4.661-1.479c-2.381-0.348-5.429-0.876-10.474,1.135c0,0-1.407,0.517-2.832,1.521
		c0,0-0.231,0.363-0.388,0.185c-0.066-0.077,0.011-0.108,0.236-0.334c0.353-0.354,2.824-2.361,6.852-3.521
		c1.713-0.492,3.563-0.894,7.041-0.485c0,0,0.558,0.114,0.999,0.053c0.474-0.064,0.736-0.278,1.003-0.671
		c0.268-0.392,0.848-1.259,0.848-1.259s0.178-0.435-0.178-0.784c-0.355-0.35-1.736-1.484-1.736-1.484s-0.417-0.275-0.921-0.186
		c-0.413,0.073-2.123,0.224-3.812,0.761c-2.224,0.707-4.22,2.305-5.556,3.091c0,0-0.399,0.175-0.534,0.175
		c-0.134,0,0.357-0.438,0.357-0.438s3.919-3.838,4.898-5.322c0,0,0.344-0.428,0.149-1.019c-0.229-0.693-0.738-1.649-1.007-2.259
		c0,0-0.312-0.35-0.801-0.219c-0.491,0.13-1.392,0.262-2.396,0.486c0,0-0.542,0.33-0.32,0.984c0.224,0.655,0.531,3.053-1.918,6.937
		c0,0-2.033,2.841-2.926,3.683c0,0-0.256,0.265-0.4,0.174c0,0-0.002-0.106,0.176-0.412c0.179-0.308,2.635-3.771,2.511-6.578
		c-0.09-2.104-0.821-3.894-1.461-4.743c0,0-0.297-0.306-1.139-0.347c-0.23-0.012-1.18-0.09-1.738-0.079c0,0-0.75,0.085-0.913,0.94
		c-0.069,0.358-0.352,1.094-0.616,2.066c0,0-0.184,0.663,0.616,0.731c0,0,1.387,1.108,2.323,2.808
		c0.965,1.756-0.487,4.555-0.68,4.977c-1.301,2.866-3.442,6.068-2.977,11.043c0.47,4.973,3.81,7.33,3.81,7.33
		s0.667,0.458,0.467,0.654c-0.2,0.197-0.735-0.261-0.735-0.261s-2.07-1.375-2.671-0.786c-0.602,0.588-0.602,2.292-0.4,2.945
		c0,0,0.267,0.328,0.534,0.064c0.267-0.259,0.935-0.654,1.536-0.588c0.6,0.065,5.809,1.505,10.487,1.505
		c0.478,0,0.939-0.022,1.394-0.053c-0.08,0.085-0.233,0.284-0.303,0.592c-0.047,0.36-0.118,0.662-0.081,1.017
		c0.065,0.594,0.304,0.831,0.678,0.555c0.797-0.845,2.715-2.381,5.289-3.429c0.08-0.033,0.16-0.062,0.237-0.092
		c1.536-0.6,3.292-1.021,5.182-1.021c0,0,4.343,0.1,4.343,2.412c0,0,0.067,0.871-0.684,0.871c0,0,0.172-0.025,0.172-0.281
		c0-0.255-0.31-0.355-0.652-0.355c-0.34,0-0.649,0.268-0.649,0.872c0,0.603,0.512,0.795,0.992,0.795
		c0.479,0,1.711-0.663,1.711-2.169c0-1.503-1.871-3.873-5.916-3.886C100.65,39.53,102.229,35.501,102.229,35.501z"/>
</g>
</svg>
